<svg width="32" height="32" viewBox="0 0 32 32" fill="none" xmlns="http://www.w3.org/2000/svg">
  <path d="M16 2.66669L25.3333 12V22.6667C25.3333 23.7276 24.9119 24.745 24.1618 25.4951C23.4116 26.2453 22.3942 26.6667 21.3333 26.6667H10.6667C9.60579 26.6667 8.5884 26.2453 7.83825 25.4951C7.0881 24.745 6.66667 23.7276 6.66667 22.6667V12L16 2.66669Z" stroke="#0066CC" stroke-width="2" stroke-linecap="round" stroke-linejoin="round"/>
  <path d="M16 20C18.2091 20 20 18.2091 20 16C20 13.7909 18.2091 12 16 12C13.7909 12 12 13.7909 12 16C12 18.2091 13.7909 20 16 20Z" stroke="#0066CC" stroke-width="2" stroke-linecap="round" stroke-linejoin="round"/>
</svg>